<svg xmlns="http://www.w3.org/2000/svg" viewBox="0 0 560 560">
<defs><pattern id="dots" width="22" height="22" patternUnits="userSpaceOnUse"><circle cx="1" cy="1" r="1" fill="#1b4840" opacity=".18"/></pattern><clipPath id="disk"><circle cx="283" cy="274" r="216"/></clipPath></defs>
<circle cx="283" cy="274" r="216" fill="#e6ece3"/>
<rect x="37" y="39" width="480" height="470" fill="url(#dots)"/>
<g clip-path="url(#disk)"><path d="M16 362 275 54 493 395Z" fill="#1b4840" opacity=".04"/><path d="M20 306H550 M284 0v560" stroke="#1b4840" stroke-width="1" opacity=".18" stroke-dasharray="4 6"/><circle cx="283" cy="274" r="148" fill="none" stroke="#1b4840" stroke-width="1" opacity=".35"/><circle cx="283" cy="274" r="94" fill="none" stroke="#1b4840" stroke-width="1" opacity=".2"/></g>
<g fill="none" stroke="#1b4840"><circle cx="283" cy="274" r="216" stroke-width="1.2"/><path d="m275 54-188 321 406 20Z" stroke-width="2.5"/><path d="M275 54 281 384 M87 375 355 179 M493 395 173 229" stroke-width="1.1" stroke-dasharray="6 6" opacity=".5"/><path d="M247 380v-22h25" stroke-width="1.1"/><path d="M97 357a35 35 0 0 1 27 20" stroke-width="1.3"/><path d="M291 77a33 33 0 0 1-36 14" stroke-width="1.3"/></g>
<circle cx="420" cy="137" r="34" fill="#ed6745"/><path d="M404 137h32 M420 121v32 M409 126l22 22 M409 148l22-22" stroke="#f7f5ee" stroke-width="1.3"/>
<g fill="#1b4840"><circle cx="275" cy="54" r="5"/><circle cx="87" cy="375" r="5"/><circle cx="493" cy="395" r="5"/><circle cx="283" cy="274" r="3.5"/></g>
<g font-family="Georgia,serif" font-style="italic" fill="#1b4840"><text x="259" y="33" font-size="24">A</text><text x="60" y="395" font-size="24">B</text><text x="504" y="417" font-size="24">C</text><text x="293" y="272" font-size="19">O</text><text x="123" y="361" font-size="19">α</text><text x="260" y="111" font-size="19">β</text></g>
<g transform="translate(30 438) rotate(-6)"><rect width="220" height="61" rx="2" fill="#1b4840"/><text x="18" y="37" fill="#f7f5ee" font-size="24" font-family="Georgia,serif" font-style="italic">the beauty of why.</text></g>
<g fill="#1b4840" font-family="monospace" font-size="10" letter-spacing="1.5"><text x="413" y="472">EXPLORE.</text><text x="413" y="489">CONNECT.</text><text x="413" y="506">PROVE.</text></g>
</svg>
