<svg xmlns="http://www.w3.org/2000/svg" viewBox="0 0 560 560" role="img" aria-labelledby="title"><title id="title">A rotated square lattice with four modular building blocks</title>
<g transform="translate(280 262) rotate(-45)">
<rect x="-165" y="-165" width="330" height="330" fill="#e6ece3"/>
<g fill="none" stroke="#1b4840" stroke-width="1" stroke-opacity=".25"><path d="M-220-165H220M-220-110H220M-220-55H220M-220 0H220M-220 55H220M-220 110H220M-220 165H220M-165-220V220M-110-220V220M-55-220V220M0-220V220M55-220V220M110-220V220M165-220V220"/></g>
<path d="M-110-110H-5V-5H-110z" fill="#1b4840"/>
<path d="M5-110H110V-5H5z" fill="#1b4840" opacity=".7"/>
<path d="M-110 5H-5V110H-110z" fill="#1b4840" opacity=".22"/>
<path d="M5 5H110V110H5z" fill="#ed6745"/>
<rect x="-165" y="-165" width="330" height="330" fill="none" stroke="#1b4840" stroke-width="2.5"/>
<g fill="#f7f5ee" stroke="#1b4840" stroke-width="1.3"><path d="M-169-169h8v8h-8zM161-169h8v8h-8zM161 161h8v8h-8zM-169 161h8v8h-8z"/></g>
<g fill="#f7f5ee" opacity=".7"><path d="M26 26h18v18H26zM50 26h18v18H50zM26 50h18v18H26z"/></g>
</g>
<g fill="#1b4840" font-family="Georgia,serif" font-style="italic" font-size="22"><text x="279" y="22">i</text><text x="522" y="267">j</text><text x="22" y="267">0</text></g>
<g transform="translate(48 476)"><path d="M0 0h176v50H0z" fill="#1b4840"/><text x="17" y="33" font-family="Georgia,serif" font-size="22" font-style="italic" fill="#f7f5ee">Build on an idea.</text></g>
<g fill="#ed6745"><path d="M443 469h13v13h-13zM463 476h13v13h-13zM450 489h13v13h-13z"/></g>
</svg>
